<svg width="50" height="50" viewBox="0 0 50 50" fill="none" xmlns="http://www.w3.org/2000/svg">
<path d="M15.875 0.00747585C15.6172 0.0426322 15.3789 0.175445 15.2188 0.382476L10.2188 6.38248C9.97656 6.68326 9.92969 7.09341 10.0977 7.44107C10.2656 7.78873 10.6172 8.00748 11 8.00748H21C21.3828 8.00748 21.7344 7.78873 21.9023 7.44107C22.0703 7.09341 22.0234 6.68326 21.7812 6.38248L16.7812 0.382476C16.5664 0.109039 16.2227 -0.0354929 15.875 0.00747585ZM29.8125 0.00747585C29.4609 0.0699759 29.1719 0.31607 29.0469 0.648101C28.9258 0.984039 28.9922 1.35904 29.2188 1.63248L34.2188 7.63248C34.4102 7.87076 34.6953 8.00748 35 8.00748C35.3047 8.00748 35.5898 7.87076 35.7812 7.63248L40.7812 1.63248C41.0234 1.33169 41.0703 0.921539 40.9023 0.573882C40.7344 0.226226 40.3828 0.00747585 40 0.00747585H30C29.9688 0.00747585 29.9375 0.00747585 29.9062 0.00747585C29.875 0.00747585 29.8438 0.00747585 29.8125 0.00747585ZM32.125 2.00748H37.875L35 5.44498L32.125 2.00748ZM16 2.56998L18.875 6.00748H13.125L16 2.56998ZM3 10.0075C1.35547 10.0075 0 11.3629 0 13.0075V47.0075C0 48.652 1.35547 50.0075 3 50.0075H47C48.6445 50.0075 50 48.652 50 47.0075V13.0075C50 11.3629 48.6445 10.0075 47 10.0075H3ZM3 12.0075H47C47.5547 12.0075 48 12.4528 48 13.0075V47.0075C48 47.5622 47.5547 48.0075 47 48.0075H3C2.44531 48.0075 2 47.5622 2 47.0075V13.0075C2 12.4528 2.44531 12.0075 3 12.0075ZM11 14.0075C8.80078 14.0075 7 15.8083 7 18.0075C7 20.2067 8.80078 22.0075 11 22.0075C13.1992 22.0075 15 20.2067 15 18.0075C15 15.8083 13.1992 14.0075 11 14.0075ZM11 22.0075C7.67578 22.0075 5 24.6833 5 28.0075V35.0075C4.99609 35.3942 5.21484 35.7458 5.5625 35.9137L7 36.6325V45.0075C7 45.5583 7.44922 46.0075 8 46.0075H14C14.5508 46.0075 15 45.5583 15 45.0075V36.6325L16.4375 35.9137C16.7852 35.7458 17.0039 35.3942 17 35.0075V28.0075C17 24.6833 14.3242 22.0075 11 22.0075ZM25 14.0075C22.8008 14.0075 21 15.8083 21 18.0075C21 20.2067 22.8008 22.0075 25 22.0075C27.1992 22.0075 29 20.2067 29 18.0075C29 15.8083 27.1992 14.0075 25 14.0075ZM25 22.0075C21.6758 22.0075 19 24.6833 19 28.0075V35.0075C18.9961 35.3942 19.2148 35.7458 19.5625 35.9137L21 36.6325V45.0075C21 45.5583 21.4492 46.0075 22 46.0075H28C28.5508 46.0075 29 45.5583 29 45.0075V36.6325L30.4375 35.9137C30.7852 35.7458 31.0039 35.3942 31 35.0075V28.0075C31 24.6833 28.3242 22.0075 25 22.0075ZM39 14.0075C36.8008 14.0075 35 15.8083 35 18.0075C35 20.2067 36.8008 22.0075 39 22.0075C41.1992 22.0075 43 20.2067 43 18.0075C43 15.8083 41.1992 14.0075 39 14.0075ZM39 22.0075C35.6758 22.0075 33 24.6833 33 28.0075V35.0075C32.9961 35.3942 33.2148 35.7458 33.5625 35.9137L35 36.6325V45.0075C35 45.5583 35.4492 46.0075 36 46.0075H42C42.5508 46.0075 43 45.5583 43 45.0075V36.6325L44.4375 35.9137C44.7852 35.7458 45.0039 35.3942 45 35.0075V28.0075C45 24.6833 42.3242 22.0075 39 22.0075ZM11 16.0075C12.1172 16.0075 13 16.8903 13 18.0075C13 19.1247 12.1172 20.0075 11 20.0075C9.88281 20.0075 9 19.1247 9 18.0075C9 16.8903 9.88281 16.0075 11 16.0075ZM25 16.0075C26.1172 16.0075 27 16.8903 27 18.0075C27 19.1247 26.1172 20.0075 25 20.0075C23.8828 20.0075 23 19.1247 23 18.0075C23 16.8903 23.8828 16.0075 25 16.0075ZM39 16.0075C40.1172 16.0075 41 16.8903 41 18.0075C41 19.1247 40.1172 20.0075 39 20.0075C37.8828 20.0075 37 19.1247 37 18.0075C37 16.8903 37.8828 16.0075 39 16.0075ZM11 24.0075C13.2773 24.0075 15 25.7301 15 28.0075V34.3825L13.5625 35.1012C13.2148 35.2692 12.9961 35.6208 13 36.0075V44.0075H9V36.0075C9.00391 35.6208 8.78516 35.2692 8.4375 35.1012L7 34.3825V28.0075C7 25.7301 8.72266 24.0075 11 24.0075ZM25 24.0075C27.2773 24.0075 29 25.7301 29 28.0075V34.3825L27.5625 35.1012C27.2148 35.2692 26.9961 35.6208 27 36.0075V44.0075H23V36.0075C23.0039 35.6208 22.7852 35.2692 22.4375 35.1012L21 34.3825V28.0075C21 25.7301 22.7227 24.0075 25 24.0075ZM39 24.0075C41.2773 24.0075 43 25.7301 43 28.0075V34.3825L41.5625 35.1012C41.2148 35.2692 40.9961 35.6208 41 36.0075V44.0075H37V36.0075C37.0039 35.6208 36.7852 35.2692 36.4375 35.1012L35 34.3825V28.0075C35 25.7301 36.7227 24.0075 39 24.0075Z" fill="#4CAF50"/>
</svg>
