<svg width="50" height="50" viewBox="0 0 50 50" fill="none" xmlns="http://www.w3.org/2000/svg">
<path d="M15.875 -0.000336647C15.6172 0.0348197 15.3789 0.167632 15.2188 0.374663L10.2188 6.37466C9.97656 6.67544 9.92969 7.0856 10.0977 7.43326C10.2656 7.78091 10.6172 7.99966 11 7.99966H21C21.3828 7.99966 21.7344 7.78091 21.9023 7.43326C22.0703 7.0856 22.0234 6.67544 21.7812 6.37466L16.7812 0.374663C16.5664 0.101226 16.2227 -0.0433054 15.875 -0.000336647ZM29.8125 -0.000336647C29.4609 0.0621634 29.1719 0.308257 29.0469 0.640288C28.9258 0.976226 28.9922 1.35123 29.2188 1.62466L34.2188 7.62466C34.4102 7.86294 34.6953 7.99966 35 7.99966C35.3047 7.99966 35.5898 7.86294 35.7812 7.62466L40.7812 1.62466C41.0234 1.32388 41.0703 0.913726 40.9023 0.566069C40.7344 0.218413 40.3828 -0.000336647 40 -0.000336647H30C29.9688 -0.000336647 29.9375 -0.000336647 29.9062 -0.000336647C29.875 -0.000336647 29.8438 -0.000336647 29.8125 -0.000336647ZM32.125 1.99966H37.875L35 5.43716L32.125 1.99966ZM16 2.56216L18.875 5.99966H13.125L16 2.56216ZM3 9.99966C1.35547 9.99966 0 11.3551 0 12.9997V46.9997C0 48.6442 1.35547 49.9997 3 49.9997H47C48.6445 49.9997 50 48.6442 50 46.9997V12.9997C50 11.3551 48.6445 9.99966 47 9.99966H3ZM3 11.9997H47C47.5547 11.9997 48 12.445 48 12.9997V46.9997C48 47.5544 47.5547 47.9997 47 47.9997H3C2.44531 47.9997 2 47.5544 2 46.9997V12.9997C2 12.445 2.44531 11.9997 3 11.9997ZM11 13.9997C8.80078 13.9997 7 15.8004 7 17.9997C7 20.1989 8.80078 21.9997 11 21.9997C13.1992 21.9997 15 20.1989 15 17.9997C15 15.8004 13.1992 13.9997 11 13.9997ZM11 21.9997C7.67578 21.9997 5 24.6754 5 27.9997V34.9997C4.99609 35.3864 5.21484 35.7379 5.5625 35.9059L7 36.6247V44.9997C7 45.5504 7.44922 45.9997 8 45.9997H14C14.5508 45.9997 15 45.5504 15 44.9997V36.6247L16.4375 35.9059C16.7852 35.7379 17.0039 35.3864 17 34.9997V27.9997C17 24.6754 14.3242 21.9997 11 21.9997ZM25 13.9997C22.8008 13.9997 21 15.8004 21 17.9997C21 20.1989 22.8008 21.9997 25 21.9997C27.1992 21.9997 29 20.1989 29 17.9997C29 15.8004 27.1992 13.9997 25 13.9997ZM25 21.9997C21.6758 21.9997 19 24.6754 19 27.9997V34.9997C18.9961 35.3864 19.2148 35.7379 19.5625 35.9059L21 36.6247V44.9997C21 45.5504 21.4492 45.9997 22 45.9997H28C28.5508 45.9997 29 45.5504 29 44.9997V36.6247L30.4375 35.9059C30.7852 35.7379 31.0039 35.3864 31 34.9997V27.9997C31 24.6754 28.3242 21.9997 25 21.9997ZM39 13.9997C36.8008 13.9997 35 15.8004 35 17.9997C35 20.1989 36.8008 21.9997 39 21.9997C41.1992 21.9997 43 20.1989 43 17.9997C43 15.8004 41.1992 13.9997 39 13.9997ZM39 21.9997C35.6758 21.9997 33 24.6754 33 27.9997V34.9997C32.9961 35.3864 33.2148 35.7379 33.5625 35.9059L35 36.6247V44.9997C35 45.5504 35.4492 45.9997 36 45.9997H42C42.5508 45.9997 43 45.5504 43 44.9997V36.6247L44.4375 35.9059C44.7852 35.7379 45.0039 35.3864 45 34.9997V27.9997C45 24.6754 42.3242 21.9997 39 21.9997ZM11 15.9997C12.1172 15.9997 13 16.8825 13 17.9997C13 19.1169 12.1172 19.9997 11 19.9997C9.88281 19.9997 9 19.1169 9 17.9997C9 16.8825 9.88281 15.9997 11 15.9997ZM25 15.9997C26.1172 15.9997 27 16.8825 27 17.9997C27 19.1169 26.1172 19.9997 25 19.9997C23.8828 19.9997 23 19.1169 23 17.9997C23 16.8825 23.8828 15.9997 25 15.9997ZM39 15.9997C40.1172 15.9997 41 16.8825 41 17.9997C41 19.1169 40.1172 19.9997 39 19.9997C37.8828 19.9997 37 19.1169 37 17.9997C37 16.8825 37.8828 15.9997 39 15.9997ZM11 23.9997C13.2773 23.9997 15 25.7223 15 27.9997V34.3747L13.5625 35.0934C13.2148 35.2614 12.9961 35.6129 13 35.9997V43.9997H9V35.9997C9.00391 35.6129 8.78516 35.2614 8.4375 35.0934L7 34.3747V27.9997C7 25.7223 8.72266 23.9997 11 23.9997ZM25 23.9997C27.2773 23.9997 29 25.7223 29 27.9997V34.3747L27.5625 35.0934C27.2148 35.2614 26.9961 35.6129 27 35.9997V43.9997H23V35.9997C23.0039 35.6129 22.7852 35.2614 22.4375 35.0934L21 34.3747V27.9997C21 25.7223 22.7227 23.9997 25 23.9997ZM39 23.9997C41.2773 23.9997 43 25.7223 43 27.9997V34.3747L41.5625 35.0934C41.2148 35.2614 40.9961 35.6129 41 35.9997V43.9997H37V35.9997C37.0039 35.6129 36.7852 35.2614 36.4375 35.0934L35 34.3747V27.9997C35 25.7223 36.7227 23.9997 39 23.9997Z" fill="#F35942"/>
</svg>
